<svg xmlns="http://www.w3.org/2000/svg" width="241.5" height="98.719" viewBox="0 0 241.5 98.719"><defs><style>.a{fill:#2d3551;}.b{fill:#fff;}.c{fill:#d79929;}.d{fill:#667faa;}.e{fill:#ccb992;}.f,.h{fill:none;}.g{fill:#504e4d;font-size:29px;font-family:Cookie-Regular, Cookie;}.h{stroke:#c49a6c;stroke-miterlimit:10;stroke-width:2px;}</style></defs><g transform="translate(-90.9 -36.611)"><g transform="translate(90.9 36.611)"><g transform="translate(6.343 81.3)"><path class="a" d="M213.858,215.519h-4.531l-.05-.151L205.4,198.1h6.293Zm-4.229-.352h3.826L211.441,198.5h-5.487Z" transform="translate(-154.1 -198.1)"/><path class="a" d="M108.031,215.519H103.5l2.114-17.419h6.293Zm-4.078-.352h3.826L111.5,198.5h-5.487Z" transform="translate(-103.5 -198.1)"/></g><g transform="translate(15.707 81.3)"><path class="b" d="M197.79,215.519h-3.222L191.9,198.1h4.43v.151Zm-2.92-.352h2.467l-1.41-16.664H192.3Z" transform="translate(-156.76 -198.1)"/><path class="b" d="M125.322,215.519H122.1l1.46-17.419h4.43Zm-2.769-.352h2.467l2.568-16.664h-3.625Z" transform="translate(-122.1 -198.1)"/></g><path class="c" d="M159.485,79.7l3.826-38.211a4.348,4.348,0,0,0-4.883-4.833c-20.138,2.97-34.435,2.97-54.17,0a4.348,4.348,0,0,0-4.883,4.833L103.2,79.649a4.766,4.766,0,0,1-.1,1.46c-.453,2.064-1.812,8.055-1.963,8.407a37.054,37.054,0,0,0,1.561,5.236,4.274,4.274,0,0,0,4.229,2.92l24.266-.806h.3l24.266.806a4.382,4.382,0,0,0,4.229-2.92,37.059,37.059,0,0,0,1.561-5.236c-.151-.4-1.46-6.343-1.963-8.407A4.343,4.343,0,0,1,159.485,79.7Z" transform="translate(-95.096 -36.611)"/><path class="d" d="M102.2,116.4l3.172,3.826c.755.957.806,1.46.906,3.071l1.057,12.435h-4.783Z" transform="translate(-96.511 -76.231)"/><path class="e" d="M215.8,116.4l-4.883,3.826c-1.158.957-1.259,1.46-1.41,3.071L207.9,135.732l7.4.554Z" transform="translate(-148.998 -76.231)"/><path d="M161.684,115.8h-2.97A1.774,1.774,0,0,0,157,117.21l-2.316,18.325c-.151.806-1.611-.806-2.417-.806H102.026c-.806,0-2.265,2.064-2.417,1.259L97.294,117.21a1.732,1.732,0,0,0-1.712-1.41h-2.97a1.7,1.7,0,0,0-1.712,1.712l3.323,39.47a3.932,3.932,0,0,0,3.927,3.927H156.8a3.878,3.878,0,0,0,3.876-3.876l2.769-39.52A1.809,1.809,0,0,0,161.684,115.8Z" transform="translate(-90.9 -75.933)"/><path class="e" d="M161.414,166.12h-51.5a1.8,1.8,0,0,1-1.812-1.812V153.081a1.8,1.8,0,0,1,1.812-1.812,351.708,351.708,0,0,1,51.5,0,1.8,1.8,0,0,1,1.812,1.812v11.227A1.8,1.8,0,0,1,161.414,166.12Z" transform="translate(-99.441 -93.077)"/><rect class="a" width="51.3" height="0.403" transform="translate(10.572 59.3)"/></g><rect class="f" width="154.405" height="66.253" transform="translate(177.995 60.368)"/><text class="g" transform="translate(177.996 77.831)"><tspan x="0" y="0">The Elite </tspan><tspan x="0" y="29">Creative Design</tspan></text><line class="h" x2="100.688" transform="translate(182.325 117.961)"/></g></svg>